<svg width="40" height="40" fill="none" xmlns="http://www.w3.org/2000/svg"><g clip-path="url(#clip0)" fill="#D4C17F"><path d="M19.969 0C13.48 0 8.203 5.278 8.203 11.766v16.468C8.203 34.722 13.481 40 19.97 40s11.766-5.278 11.766-11.766V11.766C31.735 5.278 26.457 0 19.969 0zm9.366 28.234c0 5.164-4.202 9.366-9.366 9.366s-9.366-4.202-9.366-9.366V11.766c0-5.164 4.202-9.366 9.366-9.366s9.366 4.202 9.366 9.366v16.468z"/><path d="M19.97 7.957a1.2 1.2 0 00-1.2 1.2v5.523a1.2 1.2 0 002.4 0V9.157a1.2 1.2 0 00-1.2-1.2z"/></g><defs><clipPath id="clip0"><path fill="#fff" d="M0 0h40v40H0z"/></clipPath></defs></svg>